<svg xmlns="http://www.w3.org/2000/svg" xmlns:xlink="http://www.w3.org/1999/xlink" width="2577pt" height="326pt" viewBox="0.00 0.00 2577.01 326.40">
<g id="graph0" class="graph" transform="scale(1 1) rotate(0) translate(4 322.4)">
<title>XDMModel</title>
<polygon fill="white" stroke="none" points="-4,4 -4,-322.4 2573.01,-322.4 2573.01,4 -4,4"/>
<!-- AutoRendszer -->
<g id="node1" class="node">
<title>AutoRendszer</title>
<ellipse fill="lightblue" stroke="black" cx="1493.81" cy="-296.4" rx="66.28" ry="18"/>
<ellipse fill="none" stroke="black" cx="1493.81" cy="-296.4" rx="70.28" ry="22"/>
<text text-anchor="middle" x="1493.81" y="-292.2" font-family="Times,serif" font-size="14.00">AutoRendszer</text>
</g>
<!-- Gepjarmu -->
<g id="node2" class="node">
<title>Gepjarmu</title>
<ellipse fill="lightblue" stroke="black" cx="507.81" cy="-216.4" rx="50.73" ry="18"/>
<ellipse fill="none" stroke="black" cx="507.81" cy="-216.4" rx="54.73" ry="22"/>
<text text-anchor="middle" x="507.81" y="-212.2" font-family="Times,serif" font-size="14.00">Gépjármű</text>
</g>
<!-- AutoRendszer&#45;&gt;Gepjarmu -->
<g id="edge1" class="edge">
<title>AutoRendszer-&gt;Gepjarmu</title>
<path fill="none" stroke="black" d="M1423.29,-296.4C1197.62,-296.4 507.81,-296.4 507.81,-296.4 507.81,-296.4 507.81,-250.2 507.81,-250.2"/>
<polygon fill="black" stroke="black" points="511.31,-250.2 507.81,-240.2 504.31,-250.2 511.31,-250.2"/>
</g>
<!-- Karbantartas -->
<g id="node17" class="node">
<title>Karbantartas</title>
<ellipse fill="lightblue" stroke="black" cx="1304.81" cy="-216.4" rx="60.91" ry="18"/>
<ellipse fill="none" stroke="black" cx="1304.81" cy="-216.4" rx="64.91" ry="22"/>
<text text-anchor="middle" x="1304.81" y="-212.2" font-family="Times,serif" font-size="14.00">Karbantartás</text>
</g>
<!-- AutoRendszer&#45;&gt;Karbantartas -->
<g id="edge16" class="edge">
<title>AutoRendszer-&gt;Karbantartas</title>
<path fill="none" stroke="black" d="M1474.11,-274.95C1474.11,-254.69 1474.11,-227.4 1474.11,-227.4 1474.11,-227.4 1373.17,-227.4 1373.17,-227.4"/>
<polygon fill="black" stroke="black" points="1373.17,-223.9 1363.17,-227.4 1373.17,-230.9 1373.17,-223.9"/>
</g>
<!-- Szerelo -->
<g id="node26" class="node">
<title>Szerelo</title>
<ellipse fill="lightblue" stroke="black" cx="1645.81" cy="-216.4" rx="39.99" ry="18"/>
<ellipse fill="none" stroke="black" cx="1645.81" cy="-216.4" rx="43.99" ry="22"/>
<text text-anchor="middle" x="1645.81" y="-212.2" font-family="Times,serif" font-size="14.00">Szerelő</text>
</g>
<!-- AutoRendszer&#45;&gt;Szerelo -->
<g id="edge25" class="edge">
<title>AutoRendszer-&gt;Szerelo</title>
<path fill="none" stroke="black" d="M1544.39,-280.98C1544.39,-257.73 1544.39,-216.4 1544.39,-216.4 1544.39,-216.4 1589.81,-216.4 1589.81,-216.4"/>
<polygon fill="black" stroke="black" points="1589.81,-219.9 1599.81,-216.4 1589.81,-212.9 1589.81,-219.9"/>
</g>
<!-- Kolcsonzes -->
<g id="node37" class="node">
<title>Kolcsonzes</title>
<ellipse fill="lightblue" stroke="black" cx="2133.81" cy="-216.4" rx="56.1" ry="18"/>
<ellipse fill="none" stroke="black" cx="2133.81" cy="-216.4" rx="60.1" ry="22"/>
<text text-anchor="middle" x="2133.81" y="-212.2" font-family="Times,serif" font-size="14.00">Kölcsönzés</text>
</g>
<!-- AutoRendszer&#45;&gt;Kolcsonzes -->
<g id="edge36" class="edge">
<title>AutoRendszer-&gt;Kolcsonzes</title>
<path fill="none" stroke="black" d="M1564.46,-296.4C1730.42,-296.4 2131.23,-296.4 2131.23,-296.4 2131.23,-296.4 2131.23,-250.2 2131.23,-250.2"/>
<polygon fill="black" stroke="black" points="2134.73,-250.2 2131.23,-240.2 2127.73,-250.2 2134.73,-250.2"/>
</g>
<!-- JarmuID -->
<g id="node3" class="node">
<title>JarmuID</title>
<ellipse fill="white" stroke="black" cx="881.81" cy="-68.4" rx="67.08" ry="18"/>
<text text-anchor="middle" x="881.81" y="-64.2" font-family="Times,serif" font-size="14.00">JárműID (attr)</text>
</g>
<!-- Gepjarmu&#45;&gt;JarmuID -->
<g id="edge2" class="edge">
<title>Gepjarmu-&gt;JarmuID</title>
<path fill="none" stroke="black" d="M496.41,-194.65C496.41,-156.37 496.41,-81 496.41,-81 496.41,-81 821.09,-81 821.09,-81"/>
<polygon fill="black" stroke="black" points="821.09,-84.5 831.09,-81 821.09,-77.5 821.09,-84.5"/>
</g>
<!-- Rendszam -->
<g id="node4" class="node">
<title>Rendszam</title>
<ellipse fill="white" stroke="black" cx="51.81" cy="-140.4" rx="51.81" ry="18"/>
<text text-anchor="middle" x="51.81" y="-136.2" font-family="Times,serif" font-size="14.00">Rendszám</text>
</g>
<!-- Gepjarmu&#45;&gt;Rendszam -->
<g id="edge4" class="edge">
<title>Gepjarmu-&gt;Rendszam</title>
<path fill="none" stroke="black" d="M459.87,-227.4C342.79,-227.4 51.81,-227.4 51.81,-227.4 51.81,-227.4 51.81,-170.36 51.81,-170.36"/>
<polygon fill="black" stroke="black" points="55.31,-170.36 51.81,-160.36 48.31,-170.36 55.31,-170.36"/>
</g>
<!-- JarmuTipus -->
<g id="node5" class="node">
<title>JarmuTipus</title>
<ellipse fill="white" stroke="black" cx="183.81" cy="-140.4" rx="61.74" ry="18"/>
<text text-anchor="middle" x="183.81" y="-136.2" font-family="Times,serif" font-size="14.00">Jármű Típus</text>
</g>
<!-- Gepjarmu&#45;&gt;JarmuTipus -->
<g id="edge6" class="edge">
<title>Gepjarmu-&gt;JarmuTipus</title>
<path fill="none" stroke="black" d="M452.84,-216.4C360.4,-216.4 183.81,-216.4 183.81,-216.4 183.81,-216.4 183.81,-170.31 183.81,-170.31"/>
<polygon fill="black" stroke="black" points="187.31,-170.31 183.81,-160.31 180.31,-170.31 187.31,-170.31"/>
</g>
<!-- GyartasiHely -->
<g id="node6" class="node">
<title>GyartasiHely</title>
<ellipse fill="white" stroke="black" cx="329.81" cy="-140.4" rx="66.02" ry="18"/>
<text text-anchor="middle" x="329.81" y="-136.2" font-family="Times,serif" font-size="14.00">Gyártási Hely</text>
</g>
<!-- Gepjarmu&#45;&gt;GyartasiHely -->
<g id="edge8" class="edge">
<title>Gepjarmu-&gt;GyartasiHely</title>
<path fill="none" stroke="black" d="M459.64,-205.4C406.92,-205.4 329.81,-205.4 329.81,-205.4 329.81,-205.4 329.81,-170.37 329.81,-170.37"/>
<polygon fill="black" stroke="black" points="333.31,-170.37 329.81,-160.37 326.31,-170.37 333.31,-170.37"/>
</g>
<!-- Marka -->
<g id="node7" class="node">
<title>Marka</title>
<ellipse fill="white" stroke="black" cx="450.81" cy="-140.4" rx="36.78" ry="18"/>
<text text-anchor="middle" x="450.81" y="-136.2" font-family="Times,serif" font-size="14.00">Márka</text>
</g>
<!-- Gepjarmu&#45;&gt;Marka -->
<g id="edge10" class="edge">
<title>Gepjarmu-&gt;Marka</title>
<path fill="none" stroke="black" d="M470.33,-199.91C470.33,-199.91 470.33,-167.59 470.33,-167.59"/>
<polygon fill="black" stroke="black" points="473.83,-167.59 470.33,-157.59 466.83,-167.59 473.83,-167.59"/>
</g>
<!-- Evjarat -->
<g id="node8" class="node">
<title>Evjarat</title>
<ellipse fill="white" stroke="black" cx="564.81" cy="-140.4" rx="59.58" ry="18"/>
<text text-anchor="middle" x="564.81" y="-136.2" font-family="Times,serif" font-size="14.00">Évjárat (opt)</text>
</g>
<!-- Gepjarmu&#45;&gt;Evjarat -->
<g id="edge12" class="edge">
<title>Gepjarmu-&gt;Evjarat</title>
<path fill="none" stroke="black" d="M533.88,-196.83C533.88,-196.83 533.88,-167.59 533.88,-167.59"/>
<polygon fill="black" stroke="black" points="537.38,-167.59 533.88,-157.59 530.38,-167.59 537.38,-167.59"/>
</g>
<!-- MegtettKm -->
<g id="node9" class="node">
<title>MegtettKm</title>
<ellipse fill="white" stroke="black" cx="700.81" cy="-140.4" rx="57.97" ry="18"/>
<text text-anchor="middle" x="700.81" y="-136.2" font-family="Times,serif" font-size="14.00">Megtett Km</text>
</g>
<!-- Gepjarmu&#45;&gt;MegtettKm -->
<g id="edge14" class="edge">
<title>Gepjarmu-&gt;MegtettKm</title>
<path fill="none" stroke="black" d="M562.85,-216.4C619.9,-216.4 700.81,-216.4 700.81,-216.4 700.81,-216.4 700.81,-170.31 700.81,-170.31"/>
<polygon fill="black" stroke="black" points="704.31,-170.31 700.81,-160.31 697.31,-170.31 704.31,-170.31"/>
</g>
<!-- JarmuIDRect -->
<g id="node10" class="node">
<title>JarmuIDRect</title>
<polygon fill="white" stroke="black" points="889.01,-14.4 874.61,-14.4 874.61,0 889.01,0 889.01,-14.4"/>
</g>
<!-- JarmuID&#45;&gt;JarmuIDRect -->
<g id="edge3" class="edge">
<title>JarmuID-&gt;JarmuIDRect</title>
<path fill="none" stroke="black" d="M881.81,-50.04C881.81,-50.04 881.81,-26.23 881.81,-26.23"/>
<polygon fill="black" stroke="black" points="885.31,-26.23 881.81,-16.23 878.31,-26.23 885.31,-26.23"/>
</g>
<!-- RendszamRect -->
<g id="node11" class="node">
<title>RendszamRect</title>
<polygon fill="white" stroke="black" points="59.01,-75.6 44.61,-75.6 44.61,-61.2 59.01,-61.2 59.01,-75.6"/>
</g>
<!-- Rendszam&#45;&gt;RendszamRect -->
<g id="edge5" class="edge">
<title>Rendszam-&gt;RendszamRect</title>
<path fill="none" stroke="black" d="M51.81,-122.23C51.81,-122.23 51.81,-87.36 51.81,-87.36"/>
<polygon fill="black" stroke="black" points="55.31,-87.36 51.81,-77.36 48.31,-87.36 55.31,-87.36"/>
</g>
<!-- JarmuTipusRect -->
<g id="node12" class="node">
<title>JarmuTipusRect</title>
<polygon fill="white" stroke="black" points="191.01,-75.6 176.61,-75.6 176.61,-61.2 191.01,-61.2 191.01,-75.6"/>
</g>
<!-- JarmuTipus&#45;&gt;JarmuTipusRect -->
<g id="edge7" class="edge">
<title>JarmuTipus-&gt;JarmuTipusRect</title>
<path fill="none" stroke="black" d="M183.81,-122.23C183.81,-122.23 183.81,-87.36 183.81,-87.36"/>
<polygon fill="black" stroke="black" points="187.31,-87.36 183.81,-77.36 180.31,-87.36 187.31,-87.36"/>
</g>
<!-- GyartasiHelyRect -->
<g id="node13" class="node">
<title>GyartasiHelyRect</title>
<polygon fill="white" stroke="black" points="337.01,-75.6 322.61,-75.6 322.61,-61.2 337.01,-61.2 337.01,-75.6"/>
</g>
<!-- GyartasiHely&#45;&gt;GyartasiHelyRect -->
<g id="edge9" class="edge">
<title>GyartasiHely-&gt;GyartasiHelyRect</title>
<path fill="none" stroke="black" d="M329.81,-122.23C329.81,-122.23 329.81,-87.36 329.81,-87.36"/>
<polygon fill="black" stroke="black" points="333.31,-87.36 329.81,-77.36 326.31,-87.36 333.31,-87.36"/>
</g>
<!-- MarkaRect -->
<g id="node14" class="node">
<title>MarkaRect</title>
<polygon fill="white" stroke="black" points="458.01,-75.6 443.61,-75.6 443.61,-61.2 458.01,-61.2 458.01,-75.6"/>
</g>
<!-- Marka&#45;&gt;MarkaRect -->
<g id="edge11" class="edge">
<title>Marka-&gt;MarkaRect</title>
<path fill="none" stroke="black" d="M450.81,-122.23C450.81,-122.23 450.81,-87.36 450.81,-87.36"/>
<polygon fill="black" stroke="black" points="454.31,-87.36 450.81,-77.36 447.31,-87.36 454.31,-87.36"/>
</g>
<!-- EvjaratRect -->
<g id="node15" class="node">
<title>EvjaratRect</title>
<polygon fill="white" stroke="black" points="572.01,-75.6 557.61,-75.6 557.61,-61.2 572.01,-61.2 572.01,-75.6"/>
</g>
<!-- Evjarat&#45;&gt;EvjaratRect -->
<g id="edge13" class="edge">
<title>Evjarat-&gt;EvjaratRect</title>
<path fill="none" stroke="black" d="M564.81,-122.23C564.81,-122.23 564.81,-87.36 564.81,-87.36"/>
<polygon fill="black" stroke="black" points="568.31,-87.36 564.81,-77.36 561.31,-87.36 568.31,-87.36"/>
</g>
<!-- MegtettKmRect -->
<g id="node16" class="node">
<title>MegtettKmRect</title>
<polygon fill="white" stroke="black" points="708.01,-75.6 693.61,-75.6 693.61,-61.2 708.01,-61.2 708.01,-75.6"/>
</g>
<!-- MegtettKm&#45;&gt;MegtettKmRect -->
<g id="edge15" class="edge">
<title>MegtettKm-&gt;MegtettKmRect</title>
<path fill="none" stroke="black" d="M700.81,-122.23C700.81,-122.23 700.81,-87.36 700.81,-87.36"/>
<polygon fill="black" stroke="black" points="704.31,-87.36 700.81,-77.36 697.31,-87.36 704.31,-87.36"/>
</g>
<!-- KarbSzint -->
<g id="node18" class="node">
<title>KarbSzint</title>
<ellipse fill="white" stroke="black" cx="1173.81" cy="-140.4" rx="55.02" ry="18"/>
<text text-anchor="middle" x="1173.81" y="-136.2" font-family="Times,serif" font-size="14.00">Karb. Szint</text>
</g>
<!-- Karbantartas&#45;&gt;KarbSzint -->
<g id="edge17" class="edge">
<title>Karbantartas-&gt;KarbSzint</title>
<path fill="none" stroke="black" d="M1248.11,-205.4C1212.7,-205.4 1173.81,-205.4 1173.81,-205.4 1173.81,-205.4 1173.81,-170.37 1173.81,-170.37"/>
<polygon fill="black" stroke="black" points="1177.31,-170.37 1173.81,-160.37 1170.31,-170.37 1177.31,-170.37"/>
</g>
<!-- KarbMegtettKm -->
<g id="node19" class="node">
<title>KarbMegtettKm</title>
<ellipse fill="white" stroke="black" cx="1304.81" cy="-140.4" rx="57.97" ry="18"/>
<text text-anchor="middle" x="1304.81" y="-136.2" font-family="Times,serif" font-size="14.00">Megtett Km</text>
</g>
<!-- Karbantartas&#45;&gt;KarbMegtettKm -->
<g id="edge19" class="edge">
<title>Karbantartas-&gt;KarbMegtettKm</title>
<path fill="none" stroke="black" d="M1304.81,-194.01C1304.81,-194.01 1304.81,-170.31 1304.81,-170.31"/>
<polygon fill="black" stroke="black" points="1308.31,-170.31 1304.81,-160.31 1301.31,-170.31 1308.31,-170.31"/>
</g>
<!-- KarbantartasJarmuID -->
<g id="node20" class="node">
<title>KarbantartasJarmuID</title>
<ellipse fill="white" stroke="black" cx="1033.81" cy="-140.4" rx="67.08" ry="18"/>
<text text-anchor="middle" x="1033.81" y="-136.2" font-family="Times,serif" font-size="14.00">JárműID (attr)</text>
</g>
<!-- Karbantartas&#45;&gt;KarbantartasJarmuID -->
<g id="edge21" class="edge">
<title>Karbantartas-&gt;KarbantartasJarmuID</title>
<path fill="none" stroke="black" d="M1247.99,-227.4C1168.53,-227.4 1033.81,-227.4 1033.81,-227.4 1033.81,-227.4 1033.81,-170.36 1033.81,-170.36"/>
<polygon fill="black" stroke="black" points="1037.31,-170.36 1033.81,-160.36 1030.31,-170.36 1037.31,-170.36"/>
</g>
<!-- KarbantartasSzereloID -->
<g id="node21" class="node">
<title>KarbantartasSzereloID</title>
<ellipse fill="white" stroke="black" cx="1452.81" cy="-140.4" rx="71.9" ry="18"/>
<text text-anchor="middle" x="1452.81" y="-136.2" font-family="Times,serif" font-size="14.00">SzerelőID (attr)</text>
</g>
<!-- Karbantartas&#45;&gt;KarbantartasSzereloID -->
<g id="edge23" class="edge">
<title>Karbantartas-&gt;KarbantartasSzereloID</title>
<path fill="none" stroke="black" d="M1361.75,-205.4C1383.07,-205.4 1402.22,-205.4 1402.22,-205.4 1402.22,-205.4 1402.22,-165.07 1402.22,-165.07"/>
<polygon fill="black" stroke="black" points="1405.72,-165.07 1402.22,-155.07 1398.72,-165.07 1405.72,-165.07"/>
</g>
<!-- KarbSzintRect -->
<g id="node22" class="node">
<title>KarbSzintRect</title>
<polygon fill="white" stroke="black" points="1181.01,-75.6 1166.61,-75.6 1166.61,-61.2 1181.01,-61.2 1181.01,-75.6"/>
</g>
<!-- KarbSzint&#45;&gt;KarbSzintRect -->
<g id="edge18" class="edge">
<title>KarbSzint-&gt;KarbSzintRect</title>
<path fill="none" stroke="black" d="M1173.81,-122.23C1173.81,-122.23 1173.81,-87.36 1173.81,-87.36"/>
<polygon fill="black" stroke="black" points="1177.31,-87.36 1173.81,-77.36 1170.31,-87.36 1177.31,-87.36"/>
</g>
<!-- KarbMegtettKmRect -->
<g id="node23" class="node">
<title>KarbMegtettKmRect</title>
<polygon fill="white" stroke="black" points="1312.01,-75.6 1297.61,-75.6 1297.61,-61.2 1312.01,-61.2 1312.01,-75.6"/>
</g>
<!-- KarbMegtettKm&#45;&gt;KarbMegtettKmRect -->
<g id="edge20" class="edge">
<title>KarbMegtettKm-&gt;KarbMegtettKmRect</title>
<path fill="none" stroke="black" d="M1304.81,-122.23C1304.81,-122.23 1304.81,-87.36 1304.81,-87.36"/>
<polygon fill="black" stroke="black" points="1308.31,-87.36 1304.81,-77.36 1301.31,-87.36 1308.31,-87.36"/>
</g>
<!-- KarbantartasJarmuID&#45;&gt;JarmuID -->
<g id="edge45" class="edge">
<title>KarbantartasJarmuID-&gt;JarmuID</title>
<path fill="none" stroke="black" stroke-dasharray="5,2" d="M996.66,-125.1C996.66,-107.5 996.66,-81 996.66,-81 996.66,-81 942.7,-81 942.7,-81"/>
<polygon fill="black" stroke="black" points="942.7,-77.5 932.7,-81 942.7,-84.5 942.7,-77.5"/>
</g>
<!-- KarbantartasJarmuIDRect -->
<g id="node24" class="node">
<title>KarbantartasJarmuIDRect</title>
<polygon fill="white" stroke="black" points="1041.01,-75.6 1026.61,-75.6 1026.61,-61.2 1041.01,-61.2 1041.01,-75.6"/>
</g>
<!-- KarbantartasJarmuID&#45;&gt;KarbantartasJarmuIDRect -->
<g id="edge22" class="edge">
<title>KarbantartasJarmuID-&gt;KarbantartasJarmuIDRect</title>
<path fill="none" stroke="black" d="M1033.81,-122.23C1033.81,-122.23 1033.81,-87.36 1033.81,-87.36"/>
<polygon fill="black" stroke="black" points="1037.31,-87.36 1033.81,-77.36 1030.31,-87.36 1037.31,-87.36"/>
</g>
<!-- KarbantartasSzereloIDRect -->
<g id="node25" class="node">
<title>KarbantartasSzereloIDRect</title>
<polygon fill="white" stroke="black" points="1441.01,-75.6 1426.61,-75.6 1426.61,-61.2 1441.01,-61.2 1441.01,-75.6"/>
</g>
<!-- KarbantartasSzereloID&#45;&gt;KarbantartasSzereloIDRect -->
<g id="edge24" class="edge">
<title>KarbantartasSzereloID-&gt;KarbantartasSzereloIDRect</title>
<path fill="none" stroke="black" d="M1433.81,-122.6C1433.81,-122.6 1433.81,-87.44 1433.81,-87.44"/>
<polygon fill="black" stroke="black" points="1437.31,-87.44 1433.81,-77.44 1430.31,-87.44 1437.31,-87.44"/>
</g>
<!-- SzereloID -->
<g id="node27" class="node">
<title>SzereloID</title>
<ellipse fill="white" stroke="black" cx="1530.81" cy="-68.4" rx="71.9" ry="18"/>
<text text-anchor="middle" x="1530.81" y="-64.2" font-family="Times,serif" font-size="14.00">SzerelőID (attr)</text>
</g>
<!-- KarbantartasSzereloID&#45;&gt;SzereloID -->
<g id="edge46" class="edge">
<title>KarbantartasSzereloID-&gt;SzereloID</title>
<path fill="none" stroke="black" stroke-dasharray="5,2" d="M1491.81,-125.13C1491.81,-125.13 1491.81,-95.16 1491.81,-95.16"/>
<polygon fill="black" stroke="black" points="1495.31,-95.16 1491.81,-85.16 1488.31,-95.16 1495.31,-95.16"/>
</g>
<!-- Szerelo&#45;&gt;SzereloID -->
<g id="edge26" class="edge">
<title>Szerelo-&gt;SzereloID</title>
<path fill="none" stroke="black" d="M1645.26,-194.04C1645.26,-155.58 1645.26,-81 1645.26,-81 1645.26,-81 1595.19,-81 1595.19,-81"/>
<polygon fill="black" stroke="black" points="1595.19,-77.5 1585.19,-81 1595.19,-84.5 1595.19,-77.5"/>
</g>
<!-- SzereloNev -->
<g id="node28" class="node">
<title>SzereloNev</title>
<ellipse fill="white" stroke="black" cx="1608.81" cy="-140.4" rx="27.67" ry="18"/>
<text text-anchor="middle" x="1608.81" y="-136.2" font-family="Times,serif" font-size="14.00">Név</text>
</g>
<!-- Szerelo&#45;&gt;SzereloNev -->
<g id="edge28" class="edge">
<title>Szerelo-&gt;SzereloNev</title>
<path fill="none" stroke="black" d="M1619.14,-198.39C1619.14,-198.39 1619.14,-169.01 1619.14,-169.01"/>
<polygon fill="black" stroke="black" points="1622.64,-169.01 1619.14,-159.01 1615.64,-169.01 1622.64,-169.01"/>
</g>
<!-- SzereloSSN -->
<g id="node29" class="node">
<title>SzereloSSN</title>
<ellipse fill="white" stroke="black" cx="1682.81" cy="-140.4" rx="28.75" ry="18"/>
<text text-anchor="middle" x="1682.81" y="-136.2" font-family="Times,serif" font-size="14.00">SSN</text>
</g>
<!-- Szerelo&#45;&gt;SzereloSSN -->
<g id="edge30" class="edge">
<title>Szerelo-&gt;SzereloSSN</title>
<path fill="none" stroke="black" d="M1671.93,-198.39C1671.93,-198.39 1671.93,-169.01 1671.93,-169.01"/>
<polygon fill="black" stroke="black" points="1675.43,-169.01 1671.93,-159.01 1668.43,-169.01 1675.43,-169.01"/>
</g>
<!-- SzereloLakcim -->
<g id="node30" class="node">
<title>SzereloLakcim</title>
<ellipse fill="white" stroke="black" cx="1771.81" cy="-140.4" rx="42.68" ry="18"/>
<text text-anchor="middle" x="1771.81" y="-136.2" font-family="Times,serif" font-size="14.00">Lakcím</text>
</g>
<!-- Szerelo&#45;&gt;SzereloLakcim -->
<g id="edge32" class="edge">
<title>Szerelo-&gt;SzereloLakcim</title>
<path fill="none" stroke="black" d="M1690.23,-216.4C1726.5,-216.4 1771.81,-216.4 1771.81,-216.4 1771.81,-216.4 1771.81,-170.31 1771.81,-170.31"/>
<polygon fill="black" stroke="black" points="1775.31,-170.31 1771.81,-160.31 1768.31,-170.31 1775.31,-170.31"/>
</g>
<!-- SzereloTelefon -->
<g id="node31" class="node">
<title>SzereloTelefon</title>
<ellipse fill="white" stroke="black" cx="1893.81" cy="-140.4" rx="61.45" ry="18"/>
<text text-anchor="middle" x="1893.81" y="-136.2" font-family="Times,serif" font-size="14.00">Telefonszám</text>
</g>
<!-- Szerelo&#45;&gt;SzereloTelefon -->
<g id="edge34" class="edge">
<title>Szerelo-&gt;SzereloTelefon</title>
<path fill="none" stroke="black" d="M1684.56,-227.4C1754.31,-227.4 1893.81,-227.4 1893.81,-227.4 1893.81,-227.4 1893.81,-170.36 1893.81,-170.36"/>
<polygon fill="black" stroke="black" points="1897.31,-170.36 1893.81,-160.36 1890.31,-170.36 1897.31,-170.36"/>
</g>
<!-- SzereloIDRect -->
<g id="node32" class="node">
<title>SzereloIDRect</title>
<polygon fill="white" stroke="black" points="1538.01,-14.4 1523.61,-14.4 1523.61,0 1538.01,0 1538.01,-14.4"/>
</g>
<!-- SzereloID&#45;&gt;SzereloIDRect -->
<g id="edge27" class="edge">
<title>SzereloID-&gt;SzereloIDRect</title>
<path fill="none" stroke="black" d="M1530.81,-50.04C1530.81,-50.04 1530.81,-26.23 1530.81,-26.23"/>
<polygon fill="black" stroke="black" points="1534.31,-26.23 1530.81,-16.23 1527.31,-26.23 1534.31,-26.23"/>
</g>
<!-- SzereloNevRect -->
<g id="node33" class="node">
<title>SzereloNevRect</title>
<polygon fill="white" stroke="black" points="1635.01,-75.6 1620.61,-75.6 1620.61,-61.2 1635.01,-61.2 1635.01,-75.6"/>
</g>
<!-- SzereloNev&#45;&gt;SzereloNevRect -->
<g id="edge29" class="edge">
<title>SzereloNev-&gt;SzereloNevRect</title>
<path fill="none" stroke="black" d="M1627.81,-126.86C1627.81,-126.86 1627.81,-87.24 1627.81,-87.24"/>
<polygon fill="black" stroke="black" points="1631.31,-87.24 1627.81,-77.24 1624.31,-87.24 1631.31,-87.24"/>
</g>
<!-- SzereloSSNRect -->
<g id="node34" class="node">
<title>SzereloSSNRect</title>
<polygon fill="white" stroke="black" points="1690.01,-75.6 1675.61,-75.6 1675.61,-61.2 1690.01,-61.2 1690.01,-75.6"/>
</g>
<!-- SzereloSSN&#45;&gt;SzereloSSNRect -->
<g id="edge31" class="edge">
<title>SzereloSSN-&gt;SzereloSSNRect</title>
<path fill="none" stroke="black" d="M1682.81,-122.23C1682.81,-122.23 1682.81,-87.36 1682.81,-87.36"/>
<polygon fill="black" stroke="black" points="1686.31,-87.36 1682.81,-77.36 1679.31,-87.36 1686.31,-87.36"/>
</g>
<!-- SzereloLakcimRect -->
<g id="node35" class="node">
<title>SzereloLakcimRect</title>
<polygon fill="white" stroke="black" points="1779.01,-75.6 1764.61,-75.6 1764.61,-61.2 1779.01,-61.2 1779.01,-75.6"/>
</g>
<!-- SzereloLakcim&#45;&gt;SzereloLakcimRect -->
<g id="edge33" class="edge">
<title>SzereloLakcim-&gt;SzereloLakcimRect</title>
<path fill="none" stroke="black" d="M1771.81,-122.23C1771.81,-122.23 1771.81,-87.36 1771.81,-87.36"/>
<polygon fill="black" stroke="black" points="1775.31,-87.36 1771.81,-77.36 1768.31,-87.36 1775.31,-87.36"/>
</g>
<!-- SzereloTelefonRect -->
<g id="node36" class="node">
<title>SzereloTelefonRect</title>
<polygon fill="white" stroke="black" points="1901.01,-75.6 1886.61,-75.6 1886.61,-61.2 1901.01,-61.2 1901.01,-75.6"/>
</g>
<!-- SzereloTelefon&#45;&gt;SzereloTelefonRect -->
<g id="edge35" class="edge">
<title>SzereloTelefon-&gt;SzereloTelefonRect</title>
<path fill="none" stroke="black" d="M1893.81,-122.23C1893.81,-122.23 1893.81,-87.36 1893.81,-87.36"/>
<polygon fill="black" stroke="black" points="1897.31,-87.36 1893.81,-77.36 1890.31,-87.36 1897.31,-87.36"/>
</g>
<!-- KolcsonzesID -->
<g id="node38" class="node">
<title>KolcsonzesID</title>
<ellipse fill="white" stroke="black" cx="2299.81" cy="-140.4" rx="88" ry="18"/>
<text text-anchor="middle" x="2299.81" y="-136.2" font-family="Times,serif" font-size="14.00">KölcsönzésID (attr)</text>
</g>
<!-- Kolcsonzes&#45;&gt;KolcsonzesID -->
<g id="edge37" class="edge">
<title>Kolcsonzes-&gt;KolcsonzesID</title>
<path fill="none" stroke="black" d="M2194.28,-216.4C2199.43,-216.4 2202.73,-216.4 2202.73,-216.4 2202.73,-216.4 2202.73,-140.4 2202.73,-140.4 2202.73,-140.4 2203.59,-140.4 2203.59,-140.4"/>
<polygon fill="black" stroke="black" points="2199.83,-143.9 2209.83,-140.4 2199.83,-136.9 2199.83,-143.9"/>
</g>
<!-- KolcsonzesAra -->
<g id="node39" class="node">
<title>KolcsonzesAra</title>
<ellipse fill="white" stroke="black" cx="2432.81" cy="-140.4" rx="27" ry="18"/>
<text text-anchor="middle" x="2432.81" y="-136.2" font-family="Times,serif" font-size="14.00">Ár</text>
</g>
<!-- Kolcsonzes&#45;&gt;KolcsonzesAra -->
<g id="edge39" class="edge">
<title>Kolcsonzes-&gt;KolcsonzesAra</title>
<path fill="none" stroke="black" d="M2153.84,-195.46C2153.84,-185.78 2153.84,-176.4 2153.84,-176.4 2153.84,-176.4 2428.2,-176.4 2428.2,-176.4 2428.2,-176.4 2428.2,-169.91 2428.2,-169.91"/>
<polygon fill="black" stroke="black" points="2431.7,-169.91 2428.2,-159.91 2424.7,-169.91 2431.7,-169.91"/>
</g>
<!-- KolcsonzesIdopontja -->
<g id="node40" class="node">
<title>KolcsonzesIdopontja</title>
<ellipse fill="white" stroke="black" cx="2014.81" cy="-140.4" rx="41.08" ry="18"/>
<text text-anchor="middle" x="2014.81" y="-136.2" font-family="Times,serif" font-size="14.00">Időpont</text>
</g>
<!-- Kolcsonzes&#45;&gt;KolcsonzesIdopontja -->
<g id="edge41" class="edge">
<title>Kolcsonzes-&gt;KolcsonzesIdopontja</title>
<path fill="none" stroke="black" d="M2081.26,-205.4C2049.39,-205.4 2014.81,-205.4 2014.81,-205.4 2014.81,-205.4 2014.81,-170.37 2014.81,-170.37"/>
<polygon fill="black" stroke="black" points="2018.31,-170.37 2014.81,-160.37 2011.31,-170.37 2018.31,-170.37"/>
</g>
<!-- KolcsonzesElteltNapok -->
<g id="node41" class="node">
<title>KolcsonzesElteltNapok</title>
<ellipse fill="white" stroke="black" cx="2133.81" cy="-140.4" rx="60.11" ry="18"/>
<text text-anchor="middle" x="2133.81" y="-136.2" font-family="Times,serif" font-size="14.00">Eltelt Napok</text>
</g>
<!-- Kolcsonzes&#45;&gt;KolcsonzesElteltNapok -->
<g id="edge43" class="edge">
<title>Kolcsonzes-&gt;KolcsonzesElteltNapok</title>
<path fill="none" stroke="black" d="M2113.77,-195.23C2113.77,-195.23 2113.77,-169.13 2113.77,-169.13"/>
<polygon fill="black" stroke="black" points="2117.27,-169.13 2113.77,-159.13 2110.27,-169.13 2117.27,-169.13"/>
</g>
<!-- KolcsonzesIDRect -->
<g id="node45" class="node">
<title>KolcsonzesIDRect</title>
<polygon fill="white" stroke="black" points="2307.01,-75.6 2292.61,-75.6 2292.61,-61.2 2307.01,-61.2 2307.01,-75.6"/>
</g>
<!-- KolcsonzesID&#45;&gt;KolcsonzesIDRect -->
<g id="edge38" class="edge">
<title>KolcsonzesID-&gt;KolcsonzesIDRect</title>
<path fill="none" stroke="black" d="M2299.81,-122.23C2299.81,-122.23 2299.81,-87.36 2299.81,-87.36"/>
<polygon fill="black" stroke="black" points="2303.31,-87.36 2299.81,-77.36 2296.31,-87.36 2303.31,-87.36"/>
</g>
<!-- KolcsonzesAraRect -->
<g id="node46" class="node">
<title>KolcsonzesAraRect</title>
<polygon fill="white" stroke="black" points="2440.01,-75.6 2425.61,-75.6 2425.61,-61.2 2440.01,-61.2 2440.01,-75.6"/>
</g>
<!-- KolcsonzesAra&#45;&gt;KolcsonzesAraRect -->
<g id="edge40" class="edge">
<title>KolcsonzesAra-&gt;KolcsonzesAraRect</title>
<path fill="none" stroke="black" d="M2432.81,-122.23C2432.81,-122.23 2432.81,-87.36 2432.81,-87.36"/>
<polygon fill="black" stroke="black" points="2436.31,-87.36 2432.81,-77.36 2429.31,-87.36 2436.31,-87.36"/>
</g>
<!-- KolcsonzesIdopontjaRect -->
<g id="node47" class="node">
<title>KolcsonzesIdopontjaRect</title>
<polygon fill="white" stroke="black" points="2022.01,-75.6 2007.61,-75.6 2007.61,-61.2 2022.01,-61.2 2022.01,-75.6"/>
</g>
<!-- KolcsonzesIdopontja&#45;&gt;KolcsonzesIdopontjaRect -->
<g id="edge42" class="edge">
<title>KolcsonzesIdopontja-&gt;KolcsonzesIdopontjaRect</title>
<path fill="none" stroke="black" d="M2014.81,-122.23C2014.81,-122.23 2014.81,-87.36 2014.81,-87.36"/>
<polygon fill="black" stroke="black" points="2018.31,-87.36 2014.81,-77.36 2011.31,-87.36 2018.31,-87.36"/>
</g>
<!-- KolcsonzesElteltNapokRect -->
<g id="node48" class="node">
<title>KolcsonzesElteltNapokRect</title>
<polygon fill="white" stroke="black" points="2141.01,-75.6 2126.61,-75.6 2126.61,-61.2 2141.01,-61.2 2141.01,-75.6"/>
</g>
<!-- KolcsonzesElteltNapok&#45;&gt;KolcsonzesElteltNapokRect -->
<g id="edge44" class="edge">
<title>KolcsonzesElteltNapok-&gt;KolcsonzesElteltNapokRect</title>
<path fill="none" stroke="black" d="M2133.81,-122.23C2133.81,-122.23 2133.81,-87.36 2133.81,-87.36"/>
<polygon fill="black" stroke="black" points="2137.31,-87.36 2133.81,-77.36 2130.31,-87.36 2137.31,-87.36"/>
</g>
<!-- KolcsonzesJarmuID -->
<g id="node42" class="node">
<title>KolcsonzesJarmuID</title>
<ellipse fill="white" stroke="black" cx="881.81" cy="-140.4" rx="67.08" ry="18"/>
<text text-anchor="middle" x="881.81" y="-136.2" font-family="Times,serif" font-size="14.00">JárműID (attr)</text>
</g>
<!-- KolcsonzesJarmuID&#45;&gt;JarmuID -->
<g id="edge47" class="edge">
<title>KolcsonzesJarmuID-&gt;JarmuID</title>
<path fill="none" stroke="black" stroke-dasharray="5,2" d="M881.81,-122.23C881.81,-122.23 881.81,-98.33 881.81,-98.33"/>
<polygon fill="black" stroke="black" points="885.31,-98.33 881.81,-88.33 878.31,-98.33 885.31,-98.33"/>
</g>
<!-- KolcsonzesVasarloID -->
<g id="node43" class="node">
<title>KolcsonzesVasarloID</title>
<ellipse fill="white" stroke="black" cx="2262.81" cy="-296.4" rx="74.06" ry="18"/>
<text text-anchor="middle" x="2262.81" y="-292.2" font-family="Times,serif" font-size="14.00">VásárlóID (attr)</text>
</g>
<!-- VasarloID -->
<g id="node52" class="node">
<title>VasarloID</title>
<ellipse fill="white" stroke="black" cx="2262.81" cy="-216.4" rx="51.26" ry="18"/>
<text text-anchor="middle" x="2262.81" y="-212.2" font-family="Times,serif" font-size="14.00">VasarloID</text>
</g>
<!-- KolcsonzesVasarloID&#45;&gt;VasarloID -->
<g id="edge48" class="edge">
<title>KolcsonzesVasarloID-&gt;VasarloID</title>
<path fill="none" stroke="black" stroke-dasharray="5,2" d="M2262.81,-278.25C2262.81,-278.25 2262.81,-246.27 2262.81,-246.27"/>
<polygon fill="black" stroke="black" points="2266.31,-246.27 2262.81,-236.27 2259.31,-246.27 2266.31,-246.27"/>
</g>
<!-- KolcsonzesCegID -->
<g id="node44" class="node">
<title>KolcsonzesCegID</title>
<ellipse fill="white" stroke="black" cx="2413.81" cy="-296.4" rx="59.04" ry="18"/>
<text text-anchor="middle" x="2413.81" y="-292.2" font-family="Times,serif" font-size="14.00">CégID (attr)</text>
</g>
<!-- CegID -->
<g id="node53" class="node">
<title>CegID</title>
<ellipse fill="white" stroke="black" cx="2413.81" cy="-216.4" rx="36.78" ry="18"/>
<text text-anchor="middle" x="2413.81" y="-212.2" font-family="Times,serif" font-size="14.00">CegID</text>
</g>
<!-- KolcsonzesCegID&#45;&gt;CegID -->
<g id="edge49" class="edge">
<title>KolcsonzesCegID-&gt;CegID</title>
<path fill="none" stroke="black" stroke-dasharray="5,2" d="M2413.81,-278.25C2413.81,-278.25 2413.81,-246.27 2413.81,-246.27"/>
<polygon fill="black" stroke="black" points="2417.31,-246.27 2413.81,-236.27 2410.31,-246.27 2417.31,-246.27"/>
</g>
<!-- KolcsonzesJarmuIDRect -->
<g id="node49" class="node">
<title>KolcsonzesJarmuIDRect</title>
<polygon fill="white" stroke="black" points="2505.01,-303.6 2490.61,-303.6 2490.61,-289.2 2505.01,-289.2 2505.01,-303.6"/>
</g>
<!-- KolcsonzesVasarloIDRect -->
<g id="node50" class="node">
<title>KolcsonzesVasarloIDRect</title>
<polygon fill="white" stroke="black" points="2537.01,-303.6 2522.61,-303.6 2522.61,-289.2 2537.01,-289.2 2537.01,-303.6"/>
</g>
<!-- KolcsonzesCegIDRect -->
<g id="node51" class="node">
<title>KolcsonzesCegIDRect</title>
<polygon fill="white" stroke="black" points="2569.01,-303.6 2554.61,-303.6 2554.61,-289.2 2569.01,-289.2 2569.01,-303.6"/>
</g>
</g>
</svg>